<svg xmlns="http://www.w3.org/2000/svg" viewBox="0 0 595.28 449.11"><defs><style>.cls-1{fill:#d8e9f2;}.cls-2{fill:#3c91bf;}.cls-3{fill:#c7a3c1;}.cls-4{fill:#63a7cc;}.cls-5{fill:#2d6d8f;}.cls-6{fill:#1e4960;}</style></defs><g id="Layer_7" data-name="Layer 7"><path class="cls-1" d="M233.9,364.22c3.13-5.87,5.66-10.91,7.53-14.75,2.8-5.75,5.92-12.19,9.44-20.8,2.07-5.07,3.64-9.35,4.72-12.39a8.24,8.24,0,0,0,6,1.33c4.39-1.11,6.28-7.32,8.26-15.05,1.88-7.37,4.18-17.44,6.19-29.8-4.16-2.08-10.25-5.19-17.48-9.19-38.42-21.22-57.63-31.82-71.08-51.12-17.93-25.73-18-54-17.93-62.32a114.21,114.21,0,0,1,13-51.57,14.94,14.94,0,0,0,.22-7.19c-2-8.94-13.17-15.72-27.79-17l15.24-20.41a96.88,96.88,0,0,0,7.85-9,100.44,100.44,0,0,0,6.72-9.87c6.13-9.68,25-16.28,41.93-15.47,6,.29,23.28,1.12,35.2,14.35,8.14,9,9.7,19.36,11.21,29.37A88.94,88.94,0,0,1,270,102.82a7.36,7.36,0,0,0,1.79,3.14,8.36,8.36,0,0,0,6.71,2.16c7.71,2.1,18.58,5.28,31.41,9.72,55,19.06,102.8,35.63,107.61,65.92,2.56,16.14-6.84,37.77-21.07,48.65-11.34,8.67-23.81,9-28.48,20-3.41,8-.62,16.84,2.07,22.81a14,14,0,0,1-11.93,22.48c.3-2.22,1-9.75-3.81-16.14a19.31,19.31,0,0,0-4.49-4.26,86.43,86.43,0,0,1-48.2,6.05q-8.4,19.95-16.81,39.91c-4.29,7.59-9.12,15.48-14.58,23.54-2.46,3.64-4.94,7.15-7.41,10.52l-17.7,11.22Z"/><path class="cls-2" d="M122.06,83a44.49,44.49,0,0,1,18.77,7.47,43.16,43.16,0,0,1,8.27,7.57q3.09,8.88,6.16,17.76-43,52.56-85.94,105.14L36.74,192.4Z"/></g><g id="Layer_6" data-name="Layer 6"><path class="cls-3" d="M128.71,88.17a146.05,146.05,0,0,0,18.57-.2,144.3,144.3,0,0,0,17.51-2.38,116,116,0,0,0-11.7,11.3q-2.34,2.61-4.36,5.16a24.78,24.78,0,0,0,11.91,2.39A22.8,22.8,0,0,0,173.41,100c3.16-2.46,3.35-4.24,7.36-7.26a19.16,19.16,0,0,1,2-1.39,43.32,43.32,0,0,1,4.72-2.44c1.91-.81,5.5-4.4,12.73-15.43-3.81-.08-7.74-.07-11.78.06a215,215,0,0,0-43.88,6"/><path class="cls-3" d="M336.15,335.15a30,30,0,0,0,14.27-8.68c7.12-8,7.54-17.93,7.77-23.28a58.71,58.71,0,0,0-2.92-20l10.38-11.5a30.62,30.62,0,0,1,10.71,11.71c3.58,7.19,1,10.06,4.37,16.27,4.29,7.85,11,6.93,16.33,15.15a35.69,35.69,0,0,1,5.3,15.16,13,13,0,0,1-4.42,4.56,14.27,14.27,0,0,1-8.24,1.77c-4.29-.17-11.85,4-26.19,22.21a15.16,15.16,0,0,1-7.06-6.18c-2.13-3.83-1-6.67-2.21-9.56C352.93,339.63,348.76,336.2,336.15,335.15Z"/><path class="cls-3" d="M167.42,405.33a31.9,31.9,0,0,0,19-7.83c-3.3-2.44-6.66-5.45-6-7.41.82-2.37,6.88-1.54,14-2.48,10.91-1.44,18.63-6.28,23.07-9.06,11.36-7.12,18-17.11,21.63-24.31a19.69,19.69,0,0,0,9.47,3.5c9.28.74,15.79-6.32,16.9-5.15,1.52,1.61-12.17,13.55-20.19,30.7a77.8,77.8,0,0,0-7,27.6q-6.9,2.58-14.21,5.77a281.18,281.18,0,0,0-25.54,12.77,88.51,88.51,0,0,0-11.95-7.83c-12.32-6.69-22.12-8.12-22.25-12.15C164.3,408.48,164.81,407.09,167.42,405.33Z"/></g><g id="Layer_5" data-name="Layer 5"><path class="cls-4" d="M121.28,90.3a49.29,49.29,0,0,1,12.27-14.77,63.7,63.7,0,0,1,13.1-7.86c5.63-2.63,8.87-3.25,14.78-6.68a65,65,0,0,0,6.79-4.52,20.16,20.16,0,0,0-4.53,10.12c-.33,2.84.27,4,.72,4.65,1.18,1.63,3.26,2,4.52,2.14,6.84.9,13.33-.66,18.35-1.07a39.18,39.18,0,0,1,13,1.19,113.38,113.38,0,0,0-21.45,2.39c-9,1.87-9.26,3.08-25.85,7.5-9.39,2.5-16.53,4-21.33,5C127.44,89.24,123.88,89.87,121.28,90.3Z"/><path class="cls-4" d="M157.59,109.28c4.57-2.57,7.61-2.14,11-3,7.49-2,12.45-9.29,15.75-14.14.62-.92,1.1-1.7,1.41-2.22a30.32,30.32,0,0,0-9.79.91c-6.53,1.73-9.24,4.91-17.77,9a82.15,82.15,0,0,1-8.38,3.43l5.85,7.27A22.49,22.49,0,0,1,157.59,109.28Z"/></g><g id="Layer_4" data-name="Layer 4"><path class="cls-5" d="M301.86,170.93a36,36,0,0,1-2.63,4.6c-8.08,11.93-21.55,15.9-28.28,17.32a66.17,66.17,0,0,0,10.3,5.92c17.2,7.89,33.85,6.44,43,4.82a13.48,13.48,0,0,0,1.75,8.77c2.94,4.48,7.69,4.11,14.25,8.11,6.83,4.16,6.81,7.67,11,10.3,4.71,3,13.6,4.08,32-6.13,1.2,3.37,2.48,8.63,0,12.71-2.37,3.92-6.83,4.49-22.36,8.55-14,3.67-17.89,5.16-19.07,8.55a8.66,8.66,0,0,0,2,8.33c5.6,5.77,20.17.17,36.61-6.79A737.44,737.44,0,0,0,456,218.94c25-13.85,35.66-20.18,41-32.89,1.12-2.65,8-19.17,1.47-25.85a8.83,8.83,0,0,0-2.56-1.77c-13.49-6.71-31.35-9.87-31.35-9.87-14.83-2.61-15.53-4.4-24.78-5.92-21.44-3.52-39,2.58-53.93,7.24C366.58,155.9,339.33,163.42,301.86,170.93Z"/></g><g id="Layer_3" data-name="Layer 3"><path class="cls-2" d="M275.34,107.81a30.61,30.61,0,0,1,11.2,7.47c11,11.73,13.57,34.67,7.2,47.73-.76,1.56-2.43,4.58-1.6,8,.89,3.64,4.2,5.92,10.67,9.33,9.5,5,14.25,7.52,19.46,8.8,21.18,5.19,42-6.95,45.06-8.8a18.9,18.9,0,0,0,9.6,1.07c9-1.43,13.51-9.27,14.13-10.4a143.57,143.57,0,0,0,22.4-3.47c2.21-.53,4-1,4.53-2.4,1.88-4.43-10-13.37-13.86-16.27-10.21-7.67-22.81-14.47-50.66-23.73-35-11.63-57.37-14.92-67.47-16.18C281.56,108.4,277.88,108,275.34,107.81Z"/></g><g id="Layer_2" data-name="Layer 2"><path class="cls-6" d="M429.65,229.54c.56,1.64,28.66-3.51,65.09-18.68A387.39,387.39,0,0,0,558.54,177a173.13,173.13,0,0,1-31.62-5.91,173.82,173.82,0,0,1-28.48-10.91L487,166.11c1.89,2.86,4.9,8.48,3.89,15-1.67,10.72-13.69,19.93-29.59,20.34a57.14,57.14,0,0,1-6.47,9.62C443.32,224.83,429.24,228.37,429.65,229.54Z"/><path class="cls-6" d="M477.73,213.82a175.09,175.09,0,0,1,62.69,2.59c-6.43-4.82-11.88-6.29-15.91-6.65-2.21-.2-4.56-.12-4.62-.56-.1-.77,6.9-2.36,13.5-3.7l-15.72-.92q6.84-2.79,13.87-5.55,8.78-3.45,17.38-6.66a43.46,43.46,0,0,1-11.09.56c-12.75-1-18.41-7.35-24.78-8.51C505.82,183.11,494.77,187.92,477.73,213.82Z"/><path class="cls-6" d="M207.4,55.91c0-.49,2.61-.4,5.83-1.26a23,23,0,0,0,7.43-3.55c1.75-.36,2.38,0,2.64.35,1,1.16-.28,4.64-2.64,6.06-1.53.93-3.67.59-7.89-.11C211,57.09,207.37,56.49,207.4,55.91Z"/><path class="cls-6" d="M41.63,196.86l19,10.48a818,818,0,0,1,57.54-77.75q12.56-15,25.07-28.62,2,4.57,3.82,9.78,1.42,4,2.55,7.79c-9.9,10.07-20,21.1-30.17,33.14A583.24,583.24,0,0,0,69.32,221Z"/></g></svg>