<svg width="500" height="500" viewBox="0 0 500 500" fill="none" xmlns="http://www.w3.org/2000/svg">
<g clip-path="url(#clip0_12_23)">
<rect width="500" height="500" rx="50" fill="url(#paint0_linear_12_23)"/>
<path d="M197.069 366.929C199.693 362.015 201.814 357.795 203.381 354.58C205.728 349.766 208.344 344.375 211.294 337.166C213.03 332.922 214.346 329.338 215.251 326.793C216.721 327.798 218.523 328.197 220.281 327.907C223.961 326.977 225.545 321.778 227.205 315.307C228.781 309.136 230.709 300.706 232.393 290.358C228.906 288.616 223.801 286.013 217.741 282.664C185.535 264.898 169.432 256.024 158.157 239.866C143.127 218.324 143.068 194.656 143.127 187.691C143.307 172.643 147.041 157.85 154.024 144.516C154.576 142.554 154.639 140.488 154.209 138.496C152.532 131.011 143.169 125.335 130.914 124.263L143.689 107.176C146.035 104.802 148.233 102.285 150.269 99.641C152.309 97.0006 154.19 94.2413 155.902 91.3777C161.041 83.2735 176.859 77.7479 191.05 78.4261C196.08 78.6689 210.565 79.3638 220.557 90.4401C227.381 97.975 228.688 106.648 229.954 115.029C231.578 126.104 230.681 137.401 227.33 148.082C227.604 149.069 228.12 149.973 228.831 150.711C229.58 151.403 230.471 151.924 231.443 152.236C232.415 152.548 233.443 152.645 234.456 152.519C240.919 154.277 250.03 156.94 260.785 160.657C306.89 176.614 346.959 190.487 350.991 215.846C353.137 229.359 345.257 247.467 333.328 256.576C323.823 263.835 313.369 264.111 309.455 273.32C306.596 280.018 308.935 287.419 311.19 292.417C312.554 294.2 313.378 296.335 313.563 298.571C313.748 300.807 313.286 303.049 312.233 305.031C311.18 307.013 309.58 308.651 307.622 309.751C305.665 310.851 303.432 311.367 301.19 311.238C301.441 309.379 302.028 303.075 297.996 297.725C296.941 296.342 295.67 295.138 294.232 294.159C281.526 299.67 267.504 301.428 253.828 299.224C249.134 310.359 244.436 321.496 239.737 332.637C236.14 338.991 232.092 345.597 227.515 352.345C225.453 355.392 223.374 358.331 221.303 361.152L206.466 370.546L197.069 366.929Z" fill="#D8E9F2"/>
<path d="M103.318 131.489C108.974 132.341 114.357 134.48 119.052 137.742C121.629 139.545 123.96 141.676 125.985 144.08C127.711 149.036 129.433 153.993 131.148 158.949C107.118 188.285 83.1048 217.626 59.1081 246.973L31.7976 223.079L103.318 131.489Z" fill="#3C91BF"/>
<path d="M108.893 135.817C114.08 136.091 119.279 136.035 124.459 135.649C129.388 135.285 134.29 134.62 139.137 133.657C135.65 136.577 132.373 139.739 129.329 143.117C128.022 144.574 126.803 146.014 125.675 147.437C128.785 148.921 132.216 149.609 135.658 149.438C139.521 149.309 143.253 148.013 146.363 145.721C149.012 143.662 149.171 142.171 152.532 139.643C153.066 139.22 153.626 138.831 154.209 138.479C155.485 137.718 156.806 137.036 158.166 136.436C159.767 135.758 162.776 132.753 168.837 123.518C165.643 123.451 162.348 123.46 158.962 123.568C146.56 123.974 134.234 125.657 122.179 128.592" fill="#C7A3C1"/>
<path d="M282.781 342.591C287.377 341.349 291.525 338.829 294.743 335.324C300.712 328.627 301.064 320.313 301.257 315.834C301.416 310.153 300.588 304.488 298.809 299.09L307.51 289.462C311.313 291.885 314.41 295.267 316.488 299.266C319.489 305.285 317.326 307.688 320.151 312.887C323.747 319.459 329.372 318.689 333.84 325.571C336.267 329.41 337.786 333.75 338.283 338.263C337.383 339.822 336.11 341.134 334.578 342.081C332.477 343.258 330.07 343.774 327.67 343.563C324.074 343.42 317.737 346.911 305.716 362.157C303.245 361.101 301.173 359.289 299.798 356.983C298.013 353.776 298.96 351.399 297.946 348.979C296.848 346.342 293.352 343.47 282.781 342.591Z" fill="#C7A3C1"/>
<path d="M141.342 401.347C147.229 400.976 152.829 398.671 157.268 394.792C154.502 392.749 151.686 390.229 152.239 388.588C152.926 386.604 158.006 387.298 163.975 386.511C173.12 385.306 179.591 381.254 183.313 378.926C192.836 372.965 198.402 364.602 201.445 358.574C203.791 360.223 206.527 361.233 209.383 361.504C217.162 362.124 222.619 356.213 223.55 357.192C224.824 358.54 213.348 368.537 206.625 382.895C203.263 390.171 201.273 398.005 200.757 406.002C196.901 407.442 192.931 409.052 188.846 410.833C181.533 414.032 174.387 417.6 167.437 421.524C164.28 419.073 160.93 416.88 157.419 414.968C147.092 409.367 138.877 408.17 138.768 404.796C138.726 403.984 139.154 402.82 141.342 401.347Z" fill="#C7A3C1"/>
<path d="M102.664 137.6C105.248 132.845 108.743 128.643 112.95 125.235C116.333 122.609 120.02 120.4 123.931 118.654C128.65 116.452 131.366 115.933 136.32 113.062C138.295 111.92 140.196 110.657 142.012 109.277C139.979 111.692 138.663 114.627 138.215 117.75C137.938 120.128 138.441 121.099 138.819 121.643C139.808 123.008 141.551 123.317 142.607 123.435C148.341 124.188 153.781 122.882 157.99 122.539C161.652 122.26 165.336 122.597 168.887 123.535C162.843 123.629 156.822 124.299 150.906 125.536C143.362 127.102 143.144 128.115 129.237 131.815C121.366 133.908 115.381 135.164 111.357 136.001C107.828 136.713 104.844 137.24 102.664 137.6Z" fill="#63A7CC"/>
<path d="M133.102 153.49C136.932 151.339 139.481 151.699 142.322 150.979C148.601 149.304 152.759 143.201 155.525 139.141C156.045 138.37 156.447 137.717 156.707 137.282C153.948 137.088 151.176 137.346 148.5 138.044C143.027 139.492 140.755 142.155 133.604 145.579C131.318 146.664 128.972 147.623 126.58 148.45L131.484 154.537C132.005 154.161 132.545 153.811 133.102 153.49V153.49Z" fill="#63A7CC"/>
<path d="M254.038 205.105C253.398 206.441 252.662 207.728 251.833 208.956C245.06 218.944 233.768 222.267 228.127 223.456C230.85 225.364 233.74 227.022 236.761 228.413C251.179 235.018 265.136 233.804 272.806 232.448C272.444 234.991 272.962 237.581 274.273 239.79C276.738 243.541 280.719 243.231 286.218 246.58C291.944 250.063 291.927 253.001 295.439 255.203C299.388 257.715 306.84 258.619 322.264 250.071C323.27 252.893 324.343 257.296 322.264 260.712C320.277 263.994 316.538 264.471 303.52 267.87C291.784 270.943 288.524 272.19 287.534 275.028C287.184 276.236 287.155 277.514 287.449 278.737C287.743 279.96 288.35 281.085 289.211 282.002C293.905 286.833 306.119 282.145 319.9 276.318C341.59 267.191 362.74 256.835 383.247 245.299C404.204 233.704 413.14 228.404 417.616 217.763C418.555 215.545 424.322 201.714 418.848 196.121C418.226 195.504 417.5 195.003 416.702 194.639C405.394 189.022 390.423 186.376 390.423 186.376C377.991 184.191 377.404 182.692 369.651 181.42C351.678 178.473 336.958 183.58 324.443 187.481C308.29 192.521 285.447 198.817 254.038 205.105Z" fill="#2D6D8F"/>
<path d="M231.807 152.26C235.362 153.623 238.569 155.759 241.195 158.514C250.416 168.334 252.57 187.54 247.231 198.474C246.594 199.78 245.194 202.308 245.889 205.172C246.635 208.219 249.41 210.128 254.834 212.983C262.797 217.169 266.779 219.279 271.146 220.35C288.901 224.695 306.353 214.532 308.918 212.983C311.478 213.972 314.251 214.281 316.966 213.879C324.51 212.681 328.29 206.118 328.81 205.172C335.136 204.699 341.415 203.728 347.587 202.266C349.44 201.823 350.94 201.429 351.385 200.257C352.96 196.548 343.002 189.064 339.766 186.636C331.208 180.214 320.646 174.521 297.3 166.769C267.961 157.032 249.209 154.277 240.743 153.223C237.021 152.754 233.936 152.419 231.807 152.26Z" fill="#3C91BF"/>
<path d="M361.159 254.173C361.628 255.546 385.183 251.235 415.721 238.534C434.393 230.769 452.298 221.279 469.202 210.186C460.232 209.362 451.359 207.706 442.696 205.238C434.486 202.898 426.497 199.842 418.823 196.104L409.233 201.069C410.817 203.464 413.34 208.169 412.494 213.627C411.094 222.602 401.018 230.313 387.69 230.656C386.16 233.518 384.343 236.216 382.266 238.71C372.618 250.23 360.815 253.194 361.159 254.173Z" fill="#1E4960"/>
<path d="M401.462 241.012C418.967 238.569 436.77 239.304 454.013 243.181C448.623 239.146 444.054 237.915 440.676 237.613C438.824 237.446 436.854 237.513 436.803 237.145C436.72 236.5 442.587 235.169 448.12 234.047L434.943 233.277C438.765 231.719 442.641 230.171 446.569 228.63C451.476 226.705 456.332 224.846 461.138 223.054C458.072 223.607 454.948 223.764 451.842 223.523C441.154 222.686 436.409 217.37 431.07 216.398C425.009 215.302 415.746 219.329 401.462 241.012Z" fill="#1E4960"/>
<path d="M174.855 108.809C174.855 108.398 177.043 108.474 179.742 107.754C181.98 107.145 184.09 106.138 185.97 104.782C187.437 104.48 187.966 104.782 188.183 105.075C189.022 106.046 187.949 108.959 185.97 110.148C184.688 110.927 182.894 110.642 179.357 110.056C177.873 109.796 174.83 109.294 174.855 108.809Z" fill="#1E4960"/>
<path d="M35.8967 226.813L51.8237 235.587C66.6019 212.958 82.7079 191.223 100.057 170.494C107.076 162.122 114.081 154.135 121.072 146.533C122.19 149.084 123.257 151.813 124.275 154.721C125.068 156.954 125.781 159.128 126.412 161.243C118.113 169.674 109.647 178.908 101.122 188.988C85.7138 207.28 71.6715 226.678 59.1082 247.024L35.8967 226.813Z" fill="#1E4960"/>
</g>
<defs>
<linearGradient id="paint0_linear_12_23" x1="250" y1="0" x2="250" y2="500" gradientUnits="userSpaceOnUse">
<stop stop-color="#FF9600"/>
<stop offset="1" stop-color="#FF2E6A"/>
</linearGradient>
<clipPath id="clip0_12_23">
<rect width="500" height="500" fill="white"/>
</clipPath>
</defs>
</svg>
