<svg width="500" height="500" viewBox="0 0 500 500" fill="none" xmlns="http://www.w3.org/2000/svg">
<g clip-path="url(#clip0_12_45)">
<rect x="110" y="110" width="280" height="280" rx="140" fill="url(#paint0_linear_12_45)"/>
<path d="M193.036 375.204C195.833 369.962 198.094 365.462 199.765 362.034C202.268 356.9 205.056 351.15 208.202 343.462C210.052 338.935 211.455 335.113 212.42 332.399C213.987 333.471 215.908 333.896 217.782 333.587C221.705 332.596 223.395 327.051 225.164 320.149C226.844 313.568 228.9 304.577 230.696 293.541C226.978 291.684 221.536 288.907 215.074 285.336C180.738 266.389 163.571 256.924 151.55 239.692C135.526 216.718 135.464 191.476 135.526 184.048C135.718 167.999 139.699 152.223 147.144 138.002C147.732 135.91 147.8 133.706 147.341 131.582C145.554 123.6 135.571 117.546 122.505 116.403L136.125 98.1796C138.627 95.6476 140.97 92.9639 143.141 90.1437C145.316 87.3277 147.321 84.385 149.146 81.331C154.625 72.6879 171.489 66.795 186.619 67.5182C191.981 67.7771 207.424 68.5182 218.077 80.331C225.352 88.3669 226.746 97.6171 228.095 106.555C229.827 118.366 228.871 130.415 225.298 141.806C225.59 142.858 226.14 143.822 226.898 144.609C227.697 145.348 228.647 145.903 229.683 146.236C230.719 146.569 231.815 146.672 232.895 146.538C239.785 148.413 249.499 151.252 260.966 155.217C310.119 172.235 352.838 187.03 357.136 214.075C359.424 228.486 351.023 247.799 338.306 257.513C328.172 265.255 317.027 265.549 312.854 275.371C309.806 282.514 312.3 290.407 314.704 295.738C316.158 297.638 317.036 299.916 317.233 302.301C317.431 304.685 316.939 307.076 315.816 309.19C314.693 311.303 312.987 313.05 310.9 314.224C308.813 315.397 306.433 315.948 304.042 315.809C304.31 313.827 304.935 307.104 300.637 301.398C299.513 299.923 298.158 298.639 296.624 297.595C283.078 303.473 268.128 305.347 253.548 302.997C248.543 314.872 243.536 326.75 238.525 338.631C234.691 345.408 230.374 352.453 225.495 359.65C223.296 362.9 221.08 366.034 218.872 369.043L203.054 379.061L193.036 375.204Z" fill="#D8E9F2"/>
<path d="M93.0847 124.109C99.1142 125.017 104.854 127.299 109.859 130.778C112.607 132.701 115.091 134.973 117.25 137.538C119.091 142.823 120.926 148.109 122.755 153.395C97.1361 184.681 71.5347 215.974 45.9511 247.272L16.8345 221.789L93.0847 124.109Z" fill="#3C91BF"/>
<path d="M99.0278 128.725C104.558 129.017 110.101 128.957 115.624 128.546C120.879 128.158 126.105 127.448 131.272 126.421C127.555 129.536 124.061 132.907 120.816 136.511C119.422 138.064 118.123 139.6 116.92 141.118C120.235 142.701 123.893 143.434 127.564 143.252C131.681 143.114 135.661 141.731 138.976 139.288C141.8 137.091 141.97 135.502 145.554 132.805C146.123 132.354 146.72 131.94 147.341 131.564C148.701 130.752 150.11 130.025 151.559 129.386C153.266 128.662 156.475 125.457 162.936 115.608C159.531 115.537 156.019 115.546 152.408 115.662C139.187 116.094 126.045 117.89 113.193 121.019" fill="#C7A3C1"/>
<path d="M284.416 349.248C289.316 347.922 293.738 345.235 297.169 341.497C303.533 334.354 303.908 325.488 304.113 320.711C304.283 314.653 303.4 308.611 301.504 302.854L310.78 292.586C314.835 295.17 318.137 298.776 320.352 303.041C323.551 309.461 321.246 312.024 324.257 317.568C328.091 324.577 334.088 323.756 338.851 331.095C341.439 335.189 343.059 339.819 343.588 344.632C342.628 346.294 341.271 347.693 339.638 348.703C337.398 349.959 334.832 350.509 332.274 350.283C328.44 350.132 321.684 353.855 308.868 370.114C306.234 368.988 304.025 367.056 302.558 364.596C300.655 361.177 301.665 358.641 300.583 356.06C299.413 353.248 295.686 350.185 284.416 349.248Z" fill="#C7A3C1"/>
<path d="M133.623 411.91C139.9 411.514 145.87 409.056 150.603 404.918C147.654 402.74 144.651 400.052 145.241 398.302C145.974 396.186 151.389 396.927 157.753 396.088C167.503 394.802 174.402 390.481 178.37 387.998C188.523 381.641 194.457 372.721 197.701 366.293C200.202 368.051 203.119 369.129 206.164 369.418C214.458 370.078 220.276 363.775 221.268 364.819C222.626 366.257 210.391 376.918 203.224 392.231C199.639 399.991 197.518 408.345 196.968 416.874C192.857 418.41 188.624 420.127 184.269 422.026C176.472 425.438 168.854 429.244 161.444 433.428C158.078 430.814 154.506 428.476 150.764 426.437C139.754 420.463 130.995 419.187 130.879 415.588C130.834 414.722 131.29 413.481 133.623 411.91Z" fill="#C7A3C1"/>
<path d="M92.3875 130.627C95.142 125.555 98.8679 121.074 103.353 117.439C106.96 114.639 110.89 112.283 115.061 110.421C120.092 108.073 122.988 107.519 128.269 104.456C130.375 103.239 132.401 101.892 134.338 100.421C132.169 102.995 130.767 106.126 130.289 109.457C129.994 111.992 130.53 113.028 130.933 113.608C131.987 115.064 133.846 115.394 134.972 115.519C141.085 116.323 146.885 114.93 151.371 114.564C155.276 114.266 159.204 114.626 162.99 115.626C156.546 115.727 150.127 116.442 143.82 117.76C135.776 119.43 135.544 120.51 120.718 124.457C112.326 126.689 105.945 128.028 101.655 128.921C97.8926 129.68 94.7111 130.243 92.3875 130.627Z" fill="#63A7CC"/>
<path d="M124.837 147.573C128.922 145.279 131.639 145.663 134.668 144.895C141.362 143.109 145.795 136.6 148.744 132.27C149.298 131.448 149.727 130.752 150.004 130.287C147.063 130.081 144.107 130.355 141.255 131.1C135.419 132.645 132.997 135.484 125.374 139.136C122.936 140.293 120.435 141.316 117.885 142.198L123.113 148.69C123.668 148.288 124.244 147.916 124.837 147.573V147.573Z" fill="#63A7CC"/>
<path d="M253.771 202.619C253.09 204.044 252.304 205.417 251.421 206.727C244.2 217.379 232.162 220.923 226.147 222.191C229.051 224.226 232.131 225.995 235.352 227.477C250.724 234.522 265.604 233.227 273.781 231.781C273.396 234.493 273.947 237.255 275.345 239.611C277.973 243.611 282.218 243.281 288.08 246.853C294.184 250.567 294.166 253.701 297.911 256.049C302.12 258.728 310.065 259.692 326.509 250.576C327.582 253.585 328.726 258.281 326.509 261.924C324.391 265.424 320.405 265.933 306.526 269.558C294.015 272.835 290.538 274.166 289.484 277.193C289.11 278.481 289.079 279.844 289.392 281.148C289.706 282.452 290.353 283.652 291.271 284.63C296.276 289.782 309.297 284.782 323.989 278.568C347.113 268.834 369.662 257.789 391.526 245.487C413.868 233.12 423.395 227.468 428.167 216.12C429.168 213.754 435.317 199.003 429.481 193.039C428.818 192.381 428.044 191.846 427.193 191.459C415.137 185.467 399.176 182.646 399.176 182.646C385.922 180.315 385.297 178.717 377.03 177.36C357.869 174.217 342.176 179.664 328.833 183.824C311.611 189.2 287.258 195.914 253.771 202.619Z" fill="#2D6D8F"/>
<path d="M230.071 146.261C233.861 147.715 237.28 149.993 240.08 152.931C249.911 163.404 252.207 183.887 246.515 195.548C245.835 196.941 244.343 199.637 245.085 202.691C245.88 205.941 248.838 207.977 254.62 211.021C263.111 215.486 267.356 217.736 272.012 218.879C290.94 223.513 309.547 212.673 312.282 211.021C315.01 212.077 317.967 212.406 320.861 211.977C328.905 210.7 332.935 203.7 333.489 202.691C340.233 202.187 346.927 201.151 353.508 199.593C355.483 199.119 357.083 198.7 357.556 197.45C359.237 193.494 348.619 185.512 345.17 182.923C336.045 176.074 324.785 170.003 299.895 161.735C268.616 151.35 248.624 148.413 239.597 147.288C235.629 146.788 232.341 146.431 230.071 146.261Z" fill="#3C91BF"/>
<path d="M367.977 254.951C368.477 256.415 393.59 251.817 426.148 238.272C446.055 229.99 465.143 219.869 483.166 208.039C473.602 207.16 464.142 205.394 454.907 202.762C446.153 200.267 437.636 197.007 429.454 193.021L419.23 198.316C420.92 200.869 423.61 205.887 422.707 211.709C421.214 221.281 410.472 229.504 396.262 229.87C394.631 232.922 392.694 235.8 390.48 238.46C380.194 250.746 367.611 253.906 367.977 254.951Z" fill="#1E4960"/>
<path d="M410.946 240.915C429.608 238.309 448.588 239.093 466.972 243.228C461.225 238.924 456.355 237.611 452.753 237.29C450.778 237.111 448.678 237.183 448.624 236.79C448.535 236.102 454.791 234.683 460.689 233.486L446.64 232.665C450.715 231.004 454.847 229.352 459.036 227.709C464.267 225.656 469.444 223.674 474.568 221.763C471.299 222.352 467.969 222.52 464.657 222.263C453.262 221.37 448.204 215.7 442.511 214.664C436.05 213.495 426.175 217.79 410.946 240.915Z" fill="#1E4960"/>
<path d="M169.353 99.9208C169.353 99.4833 171.685 99.5636 174.563 98.7958C176.949 98.1469 179.199 97.0731 181.203 95.626C182.767 95.3046 183.33 95.626 183.562 95.9386C184.456 96.9743 183.312 100.082 181.203 101.349C179.836 102.18 177.923 101.876 174.152 101.251C172.57 100.974 169.326 100.439 169.353 99.9208Z" fill="#1E4960"/>
<path d="M21.2046 225.772L38.1848 235.129C53.9403 210.996 71.1115 187.815 89.6082 165.708C97.0914 156.779 104.56 148.261 112.013 140.154C113.205 142.874 114.343 145.785 115.427 148.886C116.273 151.267 117.033 153.586 117.706 155.842C108.858 164.833 99.8321 174.681 90.7432 185.432C74.3162 204.94 59.3452 225.627 45.9511 247.326L21.2046 225.772Z" fill="#1E4960"/>
</g>
<defs>
<linearGradient id="paint0_linear_12_45" x1="250" y1="110" x2="250" y2="390" gradientUnits="userSpaceOnUse">
<stop stop-color="#FF9600"/>
<stop offset="1" stop-color="#FF2E6A"/>
</linearGradient>
<clipPath id="clip0_12_45">
<rect width="500" height="500" rx="50" fill="white"/>
</clipPath>
</defs>
</svg>
